G04*
G04 #@! TF.GenerationSoftware,Altium Limited,Altium Designer,26.3.0 (6)*
G04*
G04 Layer_Color=8421504*
%FSLAX44Y44*%
%MOMM*%
G71*
G04*
G04 #@! TF.SameCoordinates,27A927A6-23AA-439A-9159-47B02B73CC33*
G04*
G04*
G04 #@! TF.FilePolarity,Positive*
G04*
G01*
G75*
%ADD16R,0.4427X0.4427*%
%ADD17R,0.4500X0.4500*%
%ADD18R,0.4500X0.4500*%
%ADD19R,0.4500X0.4500*%
%ADD20R,0.4500X0.4500*%
%ADD21R,1.6510X2.8450*%
%ADD22R,0.8890X0.3050*%
%ADD23R,0.2500X1.8800*%
%ADD24R,0.2500X2.3800*%
%ADD25R,1.0121X1.2084*%
%ADD26R,0.9000X0.7500*%
%ADD27R,0.9500X1.3500*%
%ADD28R,1.3500X0.9500*%
G04:AMPARAMS|DCode=29|XSize=0.7397mm|YSize=0.2327mm|CornerRadius=0.1164mm|HoleSize=0mm|Usage=FLASHONLY|Rotation=0.000|XOffset=0mm|YOffset=0mm|HoleType=Round|Shape=RoundedRectangle|*
%AMROUNDEDRECTD29*
21,1,0.7397,0.0000,0,0,0.0*
21,1,0.5069,0.2327,0,0,0.0*
1,1,0.2327,0.2535,0.0000*
1,1,0.2327,-0.2535,0.0000*
1,1,0.2327,-0.2535,0.0000*
1,1,0.2327,0.2535,0.0000*
%
%ADD29ROUNDEDRECTD29*%
%ADD30R,1.0000X1.0500*%
G04:AMPARAMS|DCode=31|XSize=5mm|YSize=3mm|CornerRadius=0.75mm|HoleSize=0mm|Usage=FLASHONLY|Rotation=270.000|XOffset=0mm|YOffset=0mm|HoleType=Round|Shape=RoundedRectangle|*
%AMROUNDEDRECTD31*
21,1,5.0000,1.5000,0,0,270.0*
21,1,3.5000,3.0000,0,0,270.0*
1,1,1.5000,-0.7500,-1.7500*
1,1,1.5000,-0.7500,1.7500*
1,1,1.5000,0.7500,1.7500*
1,1,1.5000,0.7500,-1.7500*
%
%ADD31ROUNDEDRECTD31*%
G04:AMPARAMS|DCode=32|XSize=0.2327mm|YSize=0.7561mm|CornerRadius=0.1164mm|HoleSize=0mm|Usage=FLASHONLY|Rotation=0.000|XOffset=0mm|YOffset=0mm|HoleType=Round|Shape=RoundedRectangle|*
%AMROUNDEDRECTD32*
21,1,0.2327,0.5233,0,0,0.0*
21,1,0.0000,0.7561,0,0,0.0*
1,1,0.2327,0.0000,-0.2617*
1,1,0.2327,0.0000,-0.2617*
1,1,0.2327,0.0000,0.2617*
1,1,0.2327,0.0000,0.2617*
%
%ADD32ROUNDEDRECTD32*%
%ADD33R,0.9000X0.8000*%
%ADD34R,0.7397X0.2327*%
%ADD35R,0.7000X0.6500*%
D16*
X668020Y434340D02*
D03*
D17*
X1379160Y542840D02*
D03*
D18*
Y516340D02*
D03*
D19*
X1371660Y542840D02*
D03*
D20*
Y516340D02*
D03*
D21*
X1327150Y523240D02*
D03*
D22*
X1348220Y505740D02*
D03*
Y510740D02*
D03*
Y515740D02*
D03*
Y520740D02*
D03*
Y525740D02*
D03*
Y530740D02*
D03*
Y535740D02*
D03*
Y540740D02*
D03*
X1306080D02*
D03*
Y535740D02*
D03*
Y530740D02*
D03*
Y525740D02*
D03*
Y520740D02*
D03*
Y515740D02*
D03*
Y510740D02*
D03*
Y505740D02*
D03*
D23*
X1305400Y421640D02*
D03*
X1300400D02*
D03*
X1295400D02*
D03*
X1310400D02*
D03*
X1285400D02*
D03*
X1280400D02*
D03*
X1320400D02*
D03*
X1325400D02*
D03*
D24*
X1275400Y419140D02*
D03*
X1290400D02*
D03*
X1315400D02*
D03*
X1330400D02*
D03*
D25*
X1356360Y580789D02*
D03*
Y564751D02*
D03*
D26*
X1281430Y538480D02*
D03*
Y550480D02*
D03*
D27*
X660520Y463550D02*
D03*
X675520D02*
D03*
D28*
X633730Y462160D02*
D03*
Y447160D02*
D03*
D29*
X659157Y431840D02*
D03*
Y436840D02*
D03*
Y426840D02*
D03*
X676882D02*
D03*
Y431840D02*
D03*
Y436840D02*
D03*
Y441840D02*
D03*
D30*
X698500Y426840D02*
D03*
Y441840D02*
D03*
D31*
X900430Y425450D02*
D03*
X975430D02*
D03*
D32*
X665520Y425560D02*
D03*
X670520Y443120D02*
D03*
Y425560D02*
D03*
X665520Y443120D02*
D03*
D33*
X1317380Y466090D02*
D03*
X1334380D02*
D03*
D34*
X659157Y441840D02*
D03*
D35*
X1281430Y512680D02*
D03*
Y526180D02*
D03*
M02*
