G04*
G04 #@! TF.GenerationSoftware,Altium Limited,Altium Designer,26.3.0 (6)*
G04*
G04 Layer_Physical_Order=2*
G04 Layer_Color=16711680*
%FSLAX44Y44*%
%MOMM*%
G71*
G04*
G04 #@! TF.SameCoordinates,27A927A6-23AA-439A-9159-47B02B73CC33*
G04*
G04*
G04 #@! TF.FilePolarity,Positive*
G04*
G01*
G75*
%ADD14C,0.2540*%
%ADD23R,0.2500X1.8800*%
%ADD24R,0.2500X2.3800*%
%ADD45C,1.5000*%
%ADD46C,0.4500*%
%ADD47R,0.8000X0.8000*%
G04:AMPARAMS|DCode=48|XSize=5mm|YSize=8mm|CornerRadius=1.25mm|HoleSize=0mm|Usage=FLASHONLY|Rotation=0.000|XOffset=0mm|YOffset=0mm|HoleType=Round|Shape=RoundedRectangle|*
%AMROUNDEDRECTD48*
21,1,5.0000,5.5000,0,0,0.0*
21,1,2.5000,8.0000,0,0,0.0*
1,1,2.5000,1.2500,-2.7500*
1,1,2.5000,-1.2500,-2.7500*
1,1,2.5000,-1.2500,2.7500*
1,1,2.5000,1.2500,2.7500*
%
%ADD48ROUNDEDRECTD48*%
G36*
X1370027Y937800D02*
X1376441Y936524D01*
X1382635Y934421D01*
X1388500Y931528D01*
X1393938Y927895D01*
X1398856Y923583D01*
X1403168Y918665D01*
X1406802Y913227D01*
X1409694Y907362D01*
X1411797Y901168D01*
X1413073Y894754D01*
X1413500Y888227D01*
Y448227D01*
X1413073Y441701D01*
X1411797Y435286D01*
X1409694Y429093D01*
X1406802Y423227D01*
X1403168Y417789D01*
X1398856Y412872D01*
X1393938Y408560D01*
X1388500Y404926D01*
X1382635Y402033D01*
X1376441Y399931D01*
X1370027Y398655D01*
X1353647Y397581D01*
X1351160Y397710D01*
X1349921Y397832D01*
X1347632Y398780D01*
X1345910Y400503D01*
Y447240D01*
X1345588Y448018D01*
X1344810Y448340D01*
X1337383Y448340D01*
X1336956Y448340D01*
X1336956Y448340D01*
X1336884Y448340D01*
X1336884Y448340D01*
X1336780Y448297D01*
X1336669Y448319D01*
X1336669Y448318D01*
X1336600Y448305D01*
X1336600Y448305D01*
X1336507Y448242D01*
X1336394D01*
X1336394Y448242D01*
X1336329Y448215D01*
X1336249Y448136D01*
X1336139Y448114D01*
X1336139Y448114D01*
X1336080Y448074D01*
X1336017Y447981D01*
X1335913Y447937D01*
X1335889Y447913D01*
X1335889Y447913D01*
X1335810Y447834D01*
X1335767Y447730D01*
X1335673Y447667D01*
X1335549Y447482D01*
X1335527Y447371D01*
X1335447Y447292D01*
X1335362Y447086D01*
X1335362Y447086D01*
X1335362Y446973D01*
X1335300Y446879D01*
X1335256Y446661D01*
X1335256Y446661D01*
X1335278Y446550D01*
X1335235Y446446D01*
Y434091D01*
X1334901Y433230D01*
X1333975Y431712D01*
X1333975Y431712D01*
X1333817Y431647D01*
X1333737Y431567D01*
X1333626Y431545D01*
X1333484Y431450D01*
X1333421Y431356D01*
X1333317Y431313D01*
X1332928Y430924D01*
X1332850Y430846D01*
X1332807Y430742D01*
X1332713Y430680D01*
X1332592Y430498D01*
X1332570Y430387D01*
X1332490Y430308D01*
X1332407Y430106D01*
X1332407Y430106D01*
X1332407Y429993D01*
X1332344Y429899D01*
X1332301Y429685D01*
X1332323Y429575D01*
X1332280Y429470D01*
Y424180D01*
X1327666D01*
Y432056D01*
X1323134D01*
Y432056D01*
X1322666D01*
Y432056D01*
X1318134D01*
X1317731Y434429D01*
Y442917D01*
X1318111Y443298D01*
X1318609Y444498D01*
Y445798D01*
X1318111Y446998D01*
X1317193Y447917D01*
X1315992Y448414D01*
X1314693D01*
X1313493Y447917D01*
X1312574Y446998D01*
X1312077Y445798D01*
Y444498D01*
X1312574Y443298D01*
X1313069Y442803D01*
Y434429D01*
X1312666Y432056D01*
X1308134D01*
Y432056D01*
X1307666D01*
Y432056D01*
X1303134D01*
Y432056D01*
X1302666D01*
Y432056D01*
X1298134D01*
Y432056D01*
X1297666D01*
Y432056D01*
X1293134D01*
X1292711Y434421D01*
Y442272D01*
X1293089Y442650D01*
X1293586Y443850D01*
Y445150D01*
X1293089Y446350D01*
X1292170Y447269D01*
X1290970Y447766D01*
X1289670D01*
X1288470Y447269D01*
X1287551Y446350D01*
X1287054Y445150D01*
Y443850D01*
X1287551Y442650D01*
X1288049Y442152D01*
Y434437D01*
X1287666Y432056D01*
X1283134D01*
Y432056D01*
X1282666D01*
Y432056D01*
X1278134D01*
Y424180D01*
X1273520D01*
Y429470D01*
X1273477Y429575D01*
X1273499Y429685D01*
X1273456Y429899D01*
X1273393Y429993D01*
X1273393Y430106D01*
X1273393Y430106D01*
X1273310Y430308D01*
X1273230Y430387D01*
X1273208Y430498D01*
X1273087Y430680D01*
X1272993Y430742D01*
X1272950Y430846D01*
X1272872Y430924D01*
X1272544Y431252D01*
X1272544Y431252D01*
X1272544Y431252D01*
X1272544Y431253D01*
X1272483Y431313D01*
X1272379Y431356D01*
X1272316Y431450D01*
X1272174Y431545D01*
X1272063Y431567D01*
X1271983Y431647D01*
X1271825Y431712D01*
X1271825Y431712D01*
X1270899Y433230D01*
X1270565Y434091D01*
Y446182D01*
X1270565Y446446D01*
X1270565Y446446D01*
X1270522Y446550D01*
X1270544Y446661D01*
X1270544Y446661D01*
X1270500Y446879D01*
X1270438Y446973D01*
X1270438Y447086D01*
X1270438Y447086D01*
X1270353Y447292D01*
X1270273Y447371D01*
X1270251Y447482D01*
X1270251Y447482D01*
X1270127Y447667D01*
X1270033Y447730D01*
X1269990Y447834D01*
X1269911Y447913D01*
X1269911Y447913D01*
X1269887Y447937D01*
X1269783Y447980D01*
X1269720Y448074D01*
X1269661Y448114D01*
X1269661Y448114D01*
X1269551Y448136D01*
X1269471Y448215D01*
X1269406Y448242D01*
X1269406Y448242D01*
X1269293Y448242D01*
X1269200Y448305D01*
X1269131Y448318D01*
X1269131Y448319D01*
X1269020Y448297D01*
X1268916Y448340D01*
X1268916Y448340D01*
X1268844Y448340D01*
X1268844Y448340D01*
X1268418Y448340D01*
X1260990D01*
X1260212Y448018D01*
X1259890Y447240D01*
Y400503D01*
X1258168Y398780D01*
X1256833Y398227D01*
X613500D01*
X606974Y398655D01*
X600560Y399931D01*
X594366Y402033D01*
X588500Y404926D01*
X583062Y408560D01*
X578145Y412872D01*
X573833Y417789D01*
X570199Y423227D01*
X567307Y429093D01*
X565204Y435286D01*
X563928Y441701D01*
X563500Y448227D01*
Y888227D01*
X563928Y894754D01*
X565204Y901168D01*
X567307Y907362D01*
X570199Y913227D01*
X573833Y918665D01*
X578145Y923583D01*
X583062Y927895D01*
X588500Y931528D01*
X594366Y934421D01*
X600560Y936524D01*
X606974Y937800D01*
X613500Y938227D01*
X1363500D01*
X1370027Y937800D01*
D02*
G37*
%LPC*%
G36*
X608130Y909813D02*
X583130D01*
X579602Y909348D01*
X576314Y907986D01*
X573490Y905820D01*
X571324Y902996D01*
X569962Y899708D01*
X569497Y896180D01*
Y841180D01*
X569962Y837652D01*
X571324Y834364D01*
X573490Y831540D01*
X576314Y829374D01*
X579602Y828012D01*
X583130Y827547D01*
X608130D01*
X611658Y828012D01*
X614946Y829374D01*
X617770Y831540D01*
X619936Y834364D01*
X621298Y837652D01*
X621763Y841180D01*
Y896180D01*
X621298Y899708D01*
X619936Y902996D01*
X617770Y905820D01*
X614946Y907986D01*
X611658Y909348D01*
X608130Y909813D01*
D02*
G37*
G36*
X1357010Y553176D02*
X1355710D01*
X1354510Y552679D01*
X1353591Y551760D01*
X1353094Y550560D01*
Y549260D01*
X1353591Y548060D01*
X1354510Y547141D01*
X1355710Y546644D01*
X1356330D01*
X1362599Y540375D01*
Y531565D01*
X1361994Y531015D01*
X1360059Y530126D01*
X1359519Y530350D01*
X1358220D01*
X1357019Y529852D01*
X1356581Y529414D01*
X1349672D01*
X1328798Y550288D01*
X1328042Y550793D01*
X1327150Y550971D01*
X1296418D01*
X1295980Y551409D01*
X1294780Y551906D01*
X1293480D01*
X1292280Y551409D01*
X1291361Y550490D01*
X1290864Y549290D01*
Y547990D01*
X1291361Y546790D01*
X1292280Y545871D01*
X1293480Y545374D01*
X1294780D01*
X1295980Y545871D01*
X1296418Y546309D01*
X1326185D01*
X1347058Y525436D01*
X1347814Y524930D01*
X1348706Y524753D01*
X1355249D01*
X1356458Y522514D01*
X1356266Y521896D01*
X1356259Y521880D01*
X1355768Y520695D01*
Y519396D01*
X1356266Y518196D01*
X1356636Y517825D01*
Y509085D01*
X1356131Y508580D01*
X1355634Y507380D01*
Y506080D01*
X1356131Y504880D01*
X1357050Y503961D01*
X1358250Y503464D01*
X1359550D01*
X1360750Y503961D01*
X1361669Y504880D01*
X1362166Y506080D01*
Y507380D01*
X1361669Y508580D01*
X1361298Y508951D01*
Y517691D01*
X1361803Y518196D01*
X1362066Y518829D01*
X1362272Y518870D01*
X1363028Y519376D01*
X1363964Y520312D01*
X1366464Y519220D01*
X1366632Y518812D01*
X1367410Y518490D01*
X1383410D01*
X1384188Y518812D01*
X1384510Y519590D01*
Y539590D01*
X1384188Y540368D01*
X1383410Y540690D01*
X1367410D01*
X1367083Y542233D01*
X1366577Y542989D01*
X1359626Y549940D01*
Y550560D01*
X1359129Y551760D01*
X1358210Y552679D01*
X1357010Y553176D01*
D02*
G37*
G36*
X1327150Y525571D02*
X1326258Y525393D01*
X1325502Y524888D01*
X1324997Y524132D01*
X1324819Y523240D01*
Y515620D01*
X1324997Y514728D01*
X1325502Y513972D01*
X1326258Y513467D01*
X1327150Y513289D01*
X1328042Y513467D01*
X1328798Y513972D01*
X1329303Y514728D01*
X1329481Y515620D01*
Y523240D01*
X1329303Y524132D01*
X1328798Y524888D01*
X1328042Y525393D01*
X1327150Y525571D01*
D02*
G37*
G36*
X1296050Y527776D02*
X1294750D01*
X1293550Y527279D01*
X1292631Y526360D01*
X1292134Y525160D01*
Y523860D01*
X1292631Y522660D01*
X1293069Y522222D01*
Y510540D01*
X1293247Y509648D01*
X1293752Y508892D01*
X1302294Y500350D01*
Y499730D01*
X1302791Y498530D01*
X1303710Y497611D01*
X1304910Y497114D01*
X1306210D01*
X1307410Y497611D01*
X1308329Y498530D01*
X1308826Y499730D01*
Y501030D01*
X1308329Y502230D01*
X1307410Y503149D01*
X1306210Y503646D01*
X1305590D01*
X1297731Y511505D01*
Y522222D01*
X1298169Y522660D01*
X1298666Y523860D01*
Y525160D01*
X1298169Y526360D01*
X1297250Y527279D01*
X1296050Y527776D01*
D02*
G37*
G36*
X680571Y498736D02*
X678329D01*
X676163Y498156D01*
X674221Y497034D01*
X672635Y495449D01*
X671514Y493507D01*
X670934Y491341D01*
Y489099D01*
X671514Y486933D01*
X672635Y484991D01*
X674221Y483405D01*
X676163Y482284D01*
X678329Y481704D01*
X680571D01*
X682737Y482284D01*
X684679Y483405D01*
X686264Y484991D01*
X687386Y486933D01*
X687966Y489099D01*
Y491341D01*
X687386Y493507D01*
X686264Y495449D01*
X684679Y497034D01*
X682737Y498156D01*
X680571Y498736D01*
D02*
G37*
G36*
X632037Y435556D02*
X630737D01*
X629856Y435191D01*
X627316Y435426D01*
X627316Y435426D01*
X617284D01*
Y425394D01*
X627316D01*
Y428079D01*
X628994D01*
X629886Y428257D01*
X630642Y428762D01*
X630904Y429024D01*
X632037D01*
X633237Y429522D01*
X634156Y430440D01*
X634653Y431641D01*
Y432940D01*
X634156Y434140D01*
X633237Y435059D01*
X632037Y435556D01*
D02*
G37*
G36*
X744870Y461736D02*
X743570D01*
X742370Y461239D01*
X741451Y460320D01*
X740954Y459120D01*
Y457820D01*
X741451Y456620D01*
X741889Y456182D01*
Y430278D01*
X741451Y429840D01*
X740954Y428640D01*
Y427340D01*
X741451Y426140D01*
X742370Y425221D01*
X743570Y424724D01*
X744870D01*
X746070Y425221D01*
X746989Y426140D01*
X747486Y427340D01*
Y428640D01*
X746989Y429840D01*
X746551Y430278D01*
Y456182D01*
X746989Y456620D01*
X747486Y457820D01*
Y459120D01*
X746989Y460320D01*
X746070Y461239D01*
X744870Y461736D01*
D02*
G37*
G36*
X627316Y420426D02*
X617284D01*
Y410394D01*
X627316D01*
Y413079D01*
X632645D01*
X633004Y412720D01*
Y412100D01*
X633501Y410900D01*
X634420Y409981D01*
X635620Y409484D01*
X636920D01*
X638120Y409981D01*
X639039Y410900D01*
X639536Y412100D01*
Y413400D01*
X639039Y414600D01*
X638120Y415519D01*
X636920Y416016D01*
X636300D01*
X635258Y417058D01*
X634502Y417563D01*
X633610Y417741D01*
X627316D01*
Y420426D01*
D02*
G37*
%LPD*%
D14*
X633610Y415410D02*
X636270Y412750D01*
X622300Y415410D02*
X633610D01*
X622300Y430410D02*
X628994D01*
X630874Y432290D01*
X631387D01*
X1295400Y510540D02*
Y524510D01*
Y510540D02*
X1305560Y500380D01*
X1348706Y527084D02*
X1358869D01*
X1327150Y548640D02*
X1348706Y527084D01*
X1294130Y548640D02*
X1327150D01*
X744220Y427990D02*
Y458470D01*
X1327150Y515620D02*
Y523240D01*
X1358967Y519978D02*
X1359034Y520046D01*
X1358967Y506797D02*
Y519978D01*
X1358900Y506730D02*
X1358967Y506797D01*
X1356360Y549910D02*
X1364929Y541341D01*
Y524574D02*
Y541341D01*
X1361380Y521024D02*
X1364929Y524574D01*
X1360543Y521024D02*
X1361380D01*
X1359565Y520046D02*
X1360543Y521024D01*
X1359034Y520046D02*
X1359565D01*
X595630Y863600D02*
Y868680D01*
X585470Y853440D02*
X595630Y863600D01*
X1315400Y419140D02*
Y445091D01*
X1315343Y445148D02*
X1315400Y445091D01*
X1290380Y419160D02*
Y444440D01*
X1290320Y444500D02*
X1290380Y444440D01*
Y419160D02*
X1290400Y419140D01*
D23*
X1280400Y421640D02*
D03*
X1305400D02*
D03*
X1285400D02*
D03*
X1325400D02*
D03*
X1320400D02*
D03*
X1295400D02*
D03*
X1310400D02*
D03*
X1300400D02*
D03*
D24*
X1315400Y419140D02*
D03*
X1290400D02*
D03*
X1330400D02*
D03*
X1275400D02*
D03*
D45*
X659450Y490220D02*
D03*
X679450Y490220D02*
D03*
D46*
X1275080Y444500D02*
D03*
X1330960Y445770D02*
D03*
Y439420D02*
D03*
X1275080Y438150D02*
D03*
X636270Y412750D02*
D03*
X631387Y432290D02*
D03*
X1290320Y506730D02*
D03*
X1293542Y536630D02*
D03*
X744220Y458470D02*
D03*
Y427990D02*
D03*
X706957Y426834D02*
D03*
X872302Y402777D02*
D03*
X879645Y402590D02*
D03*
X872302Y409128D02*
D03*
X879645Y408940D02*
D03*
X872302Y416748D02*
D03*
X879645Y416560D02*
D03*
X872302Y423097D02*
D03*
X879645Y422910D02*
D03*
X872302Y430718D02*
D03*
X879645Y430530D02*
D03*
X872302Y437067D02*
D03*
X879645Y436880D02*
D03*
X879832Y444313D02*
D03*
X872490Y444500D02*
D03*
X610870Y458470D02*
D03*
X618490Y466090D02*
D03*
Y458470D02*
D03*
X610870Y466090D02*
D03*
X1305560Y500380D02*
D03*
X1295400Y524510D02*
D03*
X1327150Y515620D02*
D03*
X1347470Y499110D02*
D03*
X1356360Y590550D02*
D03*
X1268730Y538480D02*
D03*
X1358900Y506730D02*
D03*
X1356360Y549910D02*
D03*
X1359034Y520046D02*
D03*
X1358869Y527084D02*
D03*
X1294130Y548640D02*
D03*
X585470Y853440D02*
D03*
X1379220Y551180D02*
D03*
X1358108Y535512D02*
D03*
X1327150Y529590D02*
D03*
Y523240D02*
D03*
X668020Y434340D02*
D03*
X648230Y430530D02*
D03*
X661670Y416560D02*
D03*
X1315343Y445148D02*
D03*
X1290320Y444500D02*
D03*
D47*
X622300Y430410D02*
D03*
Y415410D02*
D03*
D48*
X1384300Y866140D02*
D03*
X595630Y868680D02*
D03*
M02*
