M48
;Layer_Color=9474304
;FILE_FORMAT=4:4
METRIC,LZ
;TYPE=PLATED
T01F00S00C0.2000
T02F00S00C0.4500
T03F00S00C1.0000
%
T01
X0127508Y0043815
Y004445
X0129032
X01315343Y00445148
X0133096Y0044577
Y0043942
X0134747Y0049911
X013589Y0050673
X01359034Y00520046
X01358869Y00527084
X01358108Y00535512
X0135636Y0054991
X0137922Y0055118
X0135636Y0059055
X0132715Y0052959
Y0052324
Y0051562
X0130556Y0050038
X0129032Y0050673
X012954Y0052451
X01293542Y0053663
X0129413Y0054864
X0126873Y0053848
X00879832Y00444313
X0087249Y004445
X00872302Y00437067
Y00430718
X00879645Y0043053
Y0043688
Y0042291
Y0041656
X00872302Y00416748
Y00423097
Y00409128
Y00402777
X00879645Y0040259
Y0040894
X0074422Y0042799
Y0045847
X00706957Y00426834
X0066802Y0043434
X0064823Y0043053
X00631387Y0043229
X0063627Y0041275
X0066167Y0041656
X0061849Y0045847
X0061087
Y0046609
X0061849
T02
X0058547Y0085344
T03
X0065945Y0049022
X0067945Y0049022
M30
