G04*
G04 #@! TF.GenerationSoftware,Altium Limited,Altium Designer,26.3.0 (6)*
G04*
G04 Layer_Color=8388736*
%FSLAX44Y44*%
%MOMM*%
G71*
G04*
G04 #@! TF.SameCoordinates,27A927A6-23AA-439A-9159-47B02B73CC33*
G04*
G04*
G04 #@! TF.FilePolarity,Negative*
G04*
G01*
G75*
%ADD21R,1.6510X2.8450*%
%ADD22R,0.8890X0.3050*%
%ADD25R,1.0121X1.2084*%
%ADD26R,0.9000X0.7500*%
%ADD27R,0.9500X1.3500*%
%ADD28R,1.3500X0.9500*%
G04:AMPARAMS|DCode=29|XSize=0.7397mm|YSize=0.2327mm|CornerRadius=0.1164mm|HoleSize=0mm|Usage=FLASHONLY|Rotation=0.000|XOffset=0mm|YOffset=0mm|HoleType=Round|Shape=RoundedRectangle|*
%AMROUNDEDRECTD29*
21,1,0.7397,0.0000,0,0,0.0*
21,1,0.5069,0.2327,0,0,0.0*
1,1,0.2327,0.2535,0.0000*
1,1,0.2327,-0.2535,0.0000*
1,1,0.2327,-0.2535,0.0000*
1,1,0.2327,0.2535,0.0000*
%
%ADD29ROUNDEDRECTD29*%
G04:AMPARAMS|DCode=32|XSize=0.2327mm|YSize=0.7561mm|CornerRadius=0.1164mm|HoleSize=0mm|Usage=FLASHONLY|Rotation=0.000|XOffset=0mm|YOffset=0mm|HoleType=Round|Shape=RoundedRectangle|*
%AMROUNDEDRECTD32*
21,1,0.2327,0.5233,0,0,0.0*
21,1,0.0000,0.7561,0,0,0.0*
1,1,0.2327,0.0000,-0.2617*
1,1,0.2327,0.0000,-0.2617*
1,1,0.2327,0.0000,0.2617*
1,1,0.2327,0.0000,0.2617*
%
%ADD32ROUNDEDRECTD32*%
%ADD33R,0.9000X0.8000*%
%ADD34R,0.7397X0.2327*%
%ADD35R,0.7000X0.6500*%
%ADD36R,0.4532X2.0832*%
%ADD37R,0.4532X2.5832*%
%ADD38R,0.5500X0.5500*%
%ADD39R,0.7000X0.7000*%
%ADD40R,1.2032X1.2532*%
G04:AMPARAMS|DCode=41|XSize=5.2032mm|YSize=3.2032mm|CornerRadius=0.8516mm|HoleSize=0mm|Usage=FLASHONLY|Rotation=270.000|XOffset=0mm|YOffset=0mm|HoleType=Round|Shape=RoundedRectangle|*
%AMROUNDEDRECTD41*
21,1,5.2032,1.5000,0,0,270.0*
21,1,3.5000,3.2032,0,0,270.0*
1,1,1.7032,-0.7500,-1.7500*
1,1,1.7032,-0.7500,1.7500*
1,1,1.7032,0.7500,1.7500*
1,1,1.7032,0.7500,-1.7500*
%
%ADD41ROUNDEDRECTD41*%
%ADD42C,1.7032*%
%ADD43C,0.6532*%
G36*
X1336428Y402790D02*
X1269428D01*
Y431290D01*
X1336428D01*
Y402790D01*
D02*
G37*
D21*
X1327150Y523240D02*
D03*
D22*
X1348220Y505740D02*
D03*
Y510740D02*
D03*
Y515740D02*
D03*
Y520740D02*
D03*
Y525740D02*
D03*
Y530740D02*
D03*
Y535740D02*
D03*
Y540740D02*
D03*
X1306080D02*
D03*
Y535740D02*
D03*
Y530740D02*
D03*
Y525740D02*
D03*
Y520740D02*
D03*
Y515740D02*
D03*
Y510740D02*
D03*
Y505740D02*
D03*
D25*
X1356360Y580789D02*
D03*
Y564751D02*
D03*
D26*
X1281430Y538480D02*
D03*
Y550480D02*
D03*
D27*
X660520Y463550D02*
D03*
X675520D02*
D03*
D28*
X633730Y462160D02*
D03*
Y447160D02*
D03*
D29*
X659157Y431840D02*
D03*
Y436840D02*
D03*
Y426840D02*
D03*
X676882D02*
D03*
Y431840D02*
D03*
Y436840D02*
D03*
Y441840D02*
D03*
D32*
X665520Y425560D02*
D03*
X670520Y443120D02*
D03*
Y425560D02*
D03*
X665520Y443120D02*
D03*
D33*
X1317380Y466090D02*
D03*
X1334380D02*
D03*
D34*
X659157Y441840D02*
D03*
D35*
X1281430Y512680D02*
D03*
Y526180D02*
D03*
D36*
X1305400Y421640D02*
D03*
X1300400D02*
D03*
X1295400D02*
D03*
X1310400D02*
D03*
X1285400D02*
D03*
X1280400D02*
D03*
X1320400D02*
D03*
X1325400D02*
D03*
D37*
X1275400Y419140D02*
D03*
X1290400D02*
D03*
X1315400D02*
D03*
X1330400D02*
D03*
D38*
X1379160Y542840D02*
D03*
X1371660D02*
D03*
X1379160Y516340D02*
D03*
X1371660D02*
D03*
D39*
X668020Y434340D02*
D03*
D40*
X698500Y426840D02*
D03*
Y441840D02*
D03*
D41*
X900430Y425450D02*
D03*
X975430D02*
D03*
D42*
X659450Y490220D02*
D03*
X679450Y490220D02*
D03*
D43*
X1275080Y444500D02*
D03*
X1330960Y445770D02*
D03*
Y439420D02*
D03*
X1275080Y438150D02*
D03*
X636270Y412750D02*
D03*
X631387Y432290D02*
D03*
X1290320Y506730D02*
D03*
X1293542Y536630D02*
D03*
X744220Y458470D02*
D03*
Y427990D02*
D03*
X706957Y426834D02*
D03*
X872302Y402777D02*
D03*
X879645Y402590D02*
D03*
X872302Y409128D02*
D03*
X879645Y408940D02*
D03*
X872302Y416748D02*
D03*
X879645Y416560D02*
D03*
X872302Y423097D02*
D03*
X879645Y422910D02*
D03*
X872302Y430718D02*
D03*
X879645Y430530D02*
D03*
X872302Y437067D02*
D03*
X879645Y436880D02*
D03*
X879832Y444313D02*
D03*
X872490Y444500D02*
D03*
X610870Y458470D02*
D03*
X618490Y466090D02*
D03*
Y458470D02*
D03*
X610870Y466090D02*
D03*
X1305560Y500380D02*
D03*
X1295400Y524510D02*
D03*
X1327150Y515620D02*
D03*
X1347470Y499110D02*
D03*
X1356360Y590550D02*
D03*
X1268730Y538480D02*
D03*
X1358900Y506730D02*
D03*
X1356360Y549910D02*
D03*
X1359034Y520046D02*
D03*
X1358869Y527084D02*
D03*
X1294130Y548640D02*
D03*
X585470Y853440D02*
D03*
X1379220Y551180D02*
D03*
X1358108Y535512D02*
D03*
X1327150Y529590D02*
D03*
Y523240D02*
D03*
X668020Y434340D02*
D03*
X648230Y430530D02*
D03*
X661670Y416560D02*
D03*
X1315343Y445148D02*
D03*
X1290320Y444500D02*
D03*
M02*
