G04*
G04 #@! TF.GenerationSoftware,Altium Limited,Altium Designer,26.3.0 (6)*
G04*
G04 Layer_Physical_Order=1*
G04 Layer_Color=255*
%FSLAX44Y44*%
%MOMM*%
G71*
G04*
G04 #@! TF.SameCoordinates,27A927A6-23AA-439A-9159-47B02B73CC33*
G04*
G04*
G04 #@! TF.FilePolarity,Positive*
G04*
G01*
G75*
%ADD14C,0.2540*%
%ADD21R,1.6510X2.8450*%
%ADD22R,0.8890X0.3050*%
%ADD23R,0.2500X1.8800*%
%ADD24R,0.2500X2.3800*%
%ADD25R,1.0121X1.2084*%
%ADD26R,0.9000X0.7500*%
%ADD27R,0.9500X1.3500*%
%ADD28R,1.3500X0.9500*%
G04:AMPARAMS|DCode=29|XSize=0.7397mm|YSize=0.2327mm|CornerRadius=0.1164mm|HoleSize=0mm|Usage=FLASHONLY|Rotation=0.000|XOffset=0mm|YOffset=0mm|HoleType=Round|Shape=RoundedRectangle|*
%AMROUNDEDRECTD29*
21,1,0.7397,0.0000,0,0,0.0*
21,1,0.5069,0.2327,0,0,0.0*
1,1,0.2327,0.2535,0.0000*
1,1,0.2327,-0.2535,0.0000*
1,1,0.2327,-0.2535,0.0000*
1,1,0.2327,0.2535,0.0000*
%
%ADD29ROUNDEDRECTD29*%
%ADD30R,1.0000X1.0500*%
G04:AMPARAMS|DCode=31|XSize=5mm|YSize=3mm|CornerRadius=0.75mm|HoleSize=0mm|Usage=FLASHONLY|Rotation=270.000|XOffset=0mm|YOffset=0mm|HoleType=Round|Shape=RoundedRectangle|*
%AMROUNDEDRECTD31*
21,1,5.0000,1.5000,0,0,270.0*
21,1,3.5000,3.0000,0,0,270.0*
1,1,1.5000,-0.7500,-1.7500*
1,1,1.5000,-0.7500,1.7500*
1,1,1.5000,0.7500,1.7500*
1,1,1.5000,0.7500,-1.7500*
%
%ADD31ROUNDEDRECTD31*%
G04:AMPARAMS|DCode=32|XSize=0.2327mm|YSize=0.7561mm|CornerRadius=0.1164mm|HoleSize=0mm|Usage=FLASHONLY|Rotation=0.000|XOffset=0mm|YOffset=0mm|HoleType=Round|Shape=RoundedRectangle|*
%AMROUNDEDRECTD32*
21,1,0.2327,0.5233,0,0,0.0*
21,1,0.0000,0.7561,0,0,0.0*
1,1,0.2327,0.0000,-0.2617*
1,1,0.2327,0.0000,-0.2617*
1,1,0.2327,0.0000,0.2617*
1,1,0.2327,0.0000,0.2617*
%
%ADD32ROUNDEDRECTD32*%
%ADD33R,0.9000X0.8000*%
%ADD34R,0.7397X0.2327*%
%ADD35R,0.7000X0.6500*%
%ADD38R,0.5500X0.5500*%
%ADD39R,0.7000X0.7000*%
%ADD44C,0.5080*%
%ADD45C,1.5000*%
%ADD46C,0.4500*%
G36*
X666750Y502920D02*
Y454660D01*
X652780D01*
Y478790D01*
X647700D01*
Y502331D01*
X649555Y504066D01*
X666750Y502920D01*
D02*
G37*
G36*
X642620Y454660D02*
X606974D01*
Y471170D01*
X642620D01*
Y454660D01*
D02*
G37*
G36*
X692150Y484505D02*
X683260Y475615D01*
Y455295D01*
X671830Y448151D01*
Y439420D01*
X669290D01*
Y503555D01*
X692150D01*
Y484505D01*
D02*
G37*
G36*
X641350Y449580D02*
X643376D01*
X648785Y444171D01*
X660742D01*
X662451Y443438D01*
X662919Y441464D01*
X662918Y440704D01*
X662287Y439859D01*
X661039Y439062D01*
X657274D01*
X656729Y439171D01*
X638079D01*
X637845Y439124D01*
X637606Y439122D01*
X637403Y439036D01*
X637187Y438993D01*
X636989Y438861D01*
X636769Y438768D01*
X632042Y435554D01*
X632037Y435556D01*
X630737D01*
X629537Y435059D01*
X628618Y434140D01*
X628121Y432940D01*
Y431641D01*
X628618Y430440D01*
X629537Y429522D01*
X630737Y429024D01*
X632037D01*
X633237Y429522D01*
X634156Y430440D01*
X634653Y431641D01*
Y431692D01*
X638797Y434509D01*
X643999D01*
X644656Y433552D01*
X645291Y431969D01*
X644964Y431180D01*
Y429880D01*
X645462Y428680D01*
X646380Y427761D01*
X647581Y427264D01*
X648880D01*
X650080Y427761D01*
X650999Y428680D01*
X651343Y429509D01*
X659157D01*
X659703Y429618D01*
X661039D01*
X662287Y428821D01*
X663298Y427469D01*
Y426105D01*
X663189Y425560D01*
Y424121D01*
X660397Y421329D01*
X659892Y420573D01*
X659714Y419680D01*
Y419223D01*
X658901Y418410D01*
X658404Y417210D01*
Y415910D01*
X658901Y414710D01*
X659820Y413791D01*
X661020Y413294D01*
X662320D01*
X663520Y413791D01*
X664439Y414710D01*
X664936Y415910D01*
Y417210D01*
X664439Y418410D01*
X666001Y420340D01*
X666913Y421252D01*
X667092Y421371D01*
X667573Y422092D01*
X667579Y422123D01*
X667673Y422263D01*
X667851Y423156D01*
Y425560D01*
X667742Y426105D01*
Y428176D01*
X669863Y429824D01*
X672536D01*
Y437585D01*
X672554Y437627D01*
X674348Y439618D01*
X676320D01*
X676937Y439510D01*
X681029Y439606D01*
X681042Y439596D01*
X681042Y439580D01*
X682796Y439929D01*
X683310Y440272D01*
X684380Y440988D01*
X686517Y441963D01*
X692150D01*
Y407670D01*
X613410D01*
Y452120D01*
X641350D01*
Y449580D01*
D02*
G37*
G36*
X915670Y400050D02*
X866140D01*
Y450850D01*
X915670D01*
Y400050D01*
D02*
G37*
D14*
X685376Y444293D02*
G03*
X683579Y443549I0J-2540D01*
G01*
X680980Y441936D02*
G03*
X682704Y442674I-67J2539D01*
G01*
X1275080Y438150D02*
Y444500D01*
X1330960Y438890D02*
Y445770D01*
X1330400Y419140D02*
Y438330D01*
X1330960Y438890D01*
X1275080Y438150D02*
X1275380Y437850D01*
Y419160D02*
Y437850D01*
Y419160D02*
X1275400Y419140D01*
X627380Y492760D02*
X647700Y472440D01*
Y455930D02*
Y472440D01*
X591820Y492760D02*
X627380D01*
X1290320Y506730D02*
X1290850D01*
X1294760Y510640D01*
X1305980D01*
X1306080Y510740D01*
X1294598Y518450D02*
X1297910D01*
X1282091Y514660D02*
X1287119D01*
X1290830Y514682D02*
X1294598Y518450D01*
X1287119Y514660D02*
X1287141Y514682D01*
X1290830D01*
X1280511Y513080D02*
X1282091Y514660D01*
X1294130Y548110D02*
Y548640D01*
X1293542Y536630D02*
X1294072D01*
X1294130Y548110D02*
X1296514Y545726D01*
Y542228D02*
X1298002Y540740D01*
X1296514Y542228D02*
Y545726D01*
X1294072Y536630D02*
X1294962Y535740D01*
X1306080D01*
X1298002Y540740D02*
X1306080D01*
X836230Y550480D02*
X1281430D01*
X744220Y458470D02*
X836230Y550480D01*
X689610Y411480D02*
X727710D01*
X744220Y427990D01*
X706950Y426840D02*
X706957Y426834D01*
X698500Y426840D02*
X706950D01*
X872865Y444125D02*
X887174D01*
X900430Y430869D01*
Y425450D02*
Y430869D01*
X872490Y444500D02*
X872865Y444125D01*
X1305560Y482600D02*
X1315748Y472412D01*
X1305560Y482600D02*
Y500380D01*
X1306080D02*
Y505740D01*
X1295400Y524510D02*
X1296630Y525740D01*
X1306080D01*
X1297910Y518450D02*
X1300200Y520740D01*
X1306080D01*
X1297910Y530570D02*
X1299184Y529296D01*
X1299980D01*
X1301169Y530485D01*
X1290940Y528620D02*
X1292890Y530570D01*
X1297910D01*
X1290620Y528620D02*
X1290940D01*
X1301169Y530485D02*
X1305825D01*
X1288180Y526180D02*
X1290620Y528620D01*
X1281430Y526180D02*
X1288180D01*
X1305825Y530485D02*
X1306080Y530740D01*
X1347470Y499110D02*
Y499640D01*
X1348220Y500390D01*
Y505740D01*
X1356360Y580789D02*
Y590550D01*
X1268730Y538480D02*
X1281430D01*
X1356524Y526106D02*
X1358900D01*
X632360Y446813D02*
X633730Y447160D01*
X1358370Y506730D02*
X1358900D01*
X1354615Y510485D02*
X1358370Y506730D01*
X1348475Y510485D02*
X1354615D01*
X1348220Y510740D02*
X1348475Y510485D01*
X1358340Y520740D02*
X1359034Y520046D01*
X1348220Y520740D02*
X1358340D01*
X1356360Y549910D02*
Y564751D01*
X1354515Y515995D02*
X1356524Y513986D01*
X1361544D01*
X1348475Y515995D02*
X1354515D01*
X1358900Y526106D02*
Y527053D01*
X1363554Y515995D02*
X1371315D01*
X1361544Y513986D02*
X1363554Y515995D01*
X1358869Y527084D02*
X1358900Y527053D01*
X1356179Y525760D02*
X1356524Y526106D01*
X1348240Y525760D02*
X1356179D01*
X1348220Y525740D02*
X1348240Y525760D01*
X1282000Y549910D02*
X1292860D01*
X1294130Y548640D01*
X1281430Y550480D02*
X1282000Y549910D01*
X1348220Y525740D02*
Y530740D01*
X571500Y839470D02*
X585470Y853440D01*
X571500Y513080D02*
X591820Y492760D01*
X571500Y513080D02*
Y839470D01*
X654050Y449580D02*
X662940D01*
X665520Y443120D02*
Y447000D01*
X662940Y449580D02*
X665520Y447000D01*
X647700Y455930D02*
X654050Y449580D01*
X642802Y446858D02*
X647820Y441840D01*
X631387Y432290D02*
X638079Y436840D01*
X656729D01*
X647820Y441840D02*
X659157D01*
X1296670Y453390D02*
X1307101D01*
X1296670D02*
X1309370Y466090D01*
X1307101Y453390D02*
X1315343Y445148D01*
X1290695Y447415D02*
X1296670Y453390D01*
X1348475Y540995D02*
X1354872D01*
X1356360Y542483D02*
Y549910D01*
X1354872Y540995D02*
X1356360Y542483D01*
X1334463Y466090D02*
X1369060D01*
X1379160Y476190D01*
X1290695Y444875D02*
Y447415D01*
X1290320Y444500D02*
X1290695Y444875D01*
X1309370Y466090D02*
X1317380D01*
X1315748Y467722D02*
X1317380Y466090D01*
X1315748Y467722D02*
Y472412D01*
X1315400Y419140D02*
Y445148D01*
X1290400Y419140D02*
Y444500D01*
X1379190Y551150D02*
X1379220Y551180D01*
X1379190Y542870D02*
Y551150D01*
X1379160Y542840D02*
X1379190Y542870D01*
X1371660Y542840D02*
X1379160D01*
X1357880Y535740D02*
X1358108Y535512D01*
X1348220Y535740D02*
X1357880D01*
X665520Y423156D02*
Y425560D01*
X649540Y431840D02*
X659157D01*
X648230Y430530D02*
X649540Y431840D01*
X662045Y419680D02*
X665520Y423156D01*
X662045Y416935D02*
Y419680D01*
X661670Y416560D02*
X662045Y416935D01*
X1371660Y516340D02*
X1379160D01*
X1371315Y515995D02*
X1371660Y516340D01*
X1348220Y515740D02*
X1348475Y515995D01*
X1348220Y540740D02*
X1348475Y540995D01*
X1379160Y476190D02*
Y516340D01*
X685376Y444293D02*
X694770D01*
X698500Y441840D01*
X682704Y442674D02*
X683579Y443549D01*
X680973Y441936D02*
X680980Y441936D01*
X676882Y441840D02*
X680973Y441936D01*
X634032Y446858D02*
X642802D01*
X633730Y447160D02*
X634032Y446858D01*
D21*
X1327150Y523240D02*
D03*
D22*
X1348220Y505740D02*
D03*
Y510740D02*
D03*
Y515740D02*
D03*
Y520740D02*
D03*
Y525740D02*
D03*
Y530740D02*
D03*
Y535740D02*
D03*
Y540740D02*
D03*
X1306080D02*
D03*
Y535740D02*
D03*
Y530740D02*
D03*
Y525740D02*
D03*
Y520740D02*
D03*
Y515740D02*
D03*
Y510740D02*
D03*
Y505740D02*
D03*
D23*
X1305400Y421640D02*
D03*
X1300400D02*
D03*
X1295400D02*
D03*
X1310400D02*
D03*
X1285400D02*
D03*
X1280400D02*
D03*
X1320400D02*
D03*
X1325400D02*
D03*
D24*
X1275400Y419140D02*
D03*
X1290400D02*
D03*
X1315400D02*
D03*
X1330400D02*
D03*
D25*
X1356360Y580789D02*
D03*
Y564751D02*
D03*
D26*
X1281430Y538480D02*
D03*
Y550480D02*
D03*
D27*
X660520Y463550D02*
D03*
X675520D02*
D03*
D28*
X633730Y462160D02*
D03*
Y447160D02*
D03*
D29*
X659157Y431840D02*
D03*
Y436840D02*
D03*
Y426840D02*
D03*
X676882D02*
D03*
Y431840D02*
D03*
Y436840D02*
D03*
Y441840D02*
D03*
D30*
X698500Y426840D02*
D03*
Y441840D02*
D03*
D31*
X900430Y425450D02*
D03*
X975430D02*
D03*
D32*
X665520Y425560D02*
D03*
X670520Y443120D02*
D03*
Y425560D02*
D03*
X665520Y443120D02*
D03*
D33*
X1317380Y466090D02*
D03*
X1334380D02*
D03*
D34*
X659157Y441840D02*
D03*
D35*
X1281430Y512680D02*
D03*
Y526180D02*
D03*
D38*
X1379160Y542840D02*
D03*
X1371660D02*
D03*
X1379160Y516340D02*
D03*
X1371660D02*
D03*
D39*
X668020Y434340D02*
D03*
D44*
X698500Y441840D02*
X788550D01*
X811530Y464820D01*
X969010D01*
X975430Y425450D02*
Y458400D01*
X969010Y464820D02*
X975430Y458400D01*
D45*
X659450Y490220D02*
D03*
X679450Y490220D02*
D03*
D46*
X1275080Y444500D02*
D03*
X1330960Y445770D02*
D03*
Y439420D02*
D03*
X1275080Y438150D02*
D03*
X636270Y412750D02*
D03*
X631387Y432290D02*
D03*
X1290320Y506730D02*
D03*
X1293542Y536630D02*
D03*
X744220Y458470D02*
D03*
Y427990D02*
D03*
X706957Y426834D02*
D03*
X872302Y402777D02*
D03*
X879645Y402590D02*
D03*
X872302Y409128D02*
D03*
X879645Y408940D02*
D03*
X872302Y416748D02*
D03*
X879645Y416560D02*
D03*
X872302Y423097D02*
D03*
X879645Y422910D02*
D03*
X872302Y430718D02*
D03*
X879645Y430530D02*
D03*
X872302Y437067D02*
D03*
X879645Y436880D02*
D03*
X879832Y444313D02*
D03*
X872490Y444500D02*
D03*
X610870Y458470D02*
D03*
X618490Y466090D02*
D03*
Y458470D02*
D03*
X610870Y466090D02*
D03*
X1305560Y500380D02*
D03*
X1295400Y524510D02*
D03*
X1327150Y515620D02*
D03*
X1347470Y499110D02*
D03*
X1356360Y590550D02*
D03*
X1268730Y538480D02*
D03*
X1358900Y506730D02*
D03*
X1356360Y549910D02*
D03*
X1359034Y520046D02*
D03*
X1358869Y527084D02*
D03*
X1294130Y548640D02*
D03*
X585470Y853440D02*
D03*
X1379220Y551180D02*
D03*
X1358108Y535512D02*
D03*
X1327150Y529590D02*
D03*
Y523240D02*
D03*
X668020Y434340D02*
D03*
X648230Y430530D02*
D03*
X661670Y416560D02*
D03*
X1315343Y445148D02*
D03*
X1290320Y444500D02*
D03*
M02*
